{
  "source": "C:\\Users\\Peter\\Desktop\\stuff\\MIUN\\quantitative_research\\video_compression\\videos\\UVG\\Jockey_1920x1080_120fps_420_8bit_YUV.y4m",
  "output": "C:\\Users\\Peter\\Desktop\\stuff\\MIUN\\quantitative_research\\video_compression\\compressed_videos\\UVG\\vp9\\4\\Jockey_1920x1080_120fps_420_8bit_YUV_vp9.webm",
  "codec": "vp9",
  "ok": "[yuv4mpegpipe @ 000002683fd652c0] Stream #0: not enough frames to estimate rate; consider increasing probesize\nInput #0, yuv4mpegpipe, from 'C:\\Users\\Peter\\Desktop\\stuff\\MIUN\\quantitative_research\\video_compression\\videos\\UVG\\Jockey_1920x1080_120fps_420_8bit_YUV.y4m':\n  Duration: 00:00:05.00, start: 0.000000, bitrate: 2985989 kb/s\n  Stream #0:0: Video: rawvideo (I420 / 0x30323449), yuv420p(progressive), 1920x1080, 120 fps, 120 tbr, 120 tbn\n[out#0/webm @ 000002683fd69b80] Codec AVOption b:a (set bitrate (in bits/s)) has not been used for any stream. The most likely reason is either wrong type (e.g. a video option with no video streams) or that it is a private option of some decoder which was not actually used for any stream.\nStream mapping:\n  Stream #0:0 -> #0:0 (rawvideo (native) -> vp9 (libvpx-vp9))\nPress [q] to stop, [?] for help\n[libvpx-vp9 @ 000002683fd6cec0] v1.15.2-100-g40561f514\nOutput #0, webm, to 'C:\\Users\\Peter\\Desktop\\stuff\\MIUN\\quantitative_research\\video_compression\\compressed_videos\\UVG\\vp9\\4\\Jockey_1920x1080_120fps_420_8bit_YUV_vp9.webm':\n  Metadata:\n    encoder         : Lavf62.3.100\n  Stream #0:0: Video: vp9, yuv420p(tv, progressive), 1920x1080, q=2-31, 4000 kb/s, 120 fps, 1k tbn\n    Metadata:\n      encoder         : Lavc62.11.100 libvpx-vp9\n    Side data:\n      cpb: bitrate max/min/avg: 0/0/0 buffer size: 4000000 vbv_delay: N/A\nframe=    4 fps=0.0 q=55.0 size=       0KiB time=00:00:00.03 bitrate= 115.4kbits/s speed=0.0626x elapsed=0:00:00.53    \nframe=   11 fps= 10 q=44.0 size=       0KiB time=00:00:00.09 bitrate=  42.0kbits/s speed=0.0872x elapsed=0:00:01.05    \nframe=   17 fps= 11 q=42.0 size=       0KiB time=00:00:00.14 bitrate=  27.2kbits/s speed=0.0892x elapsed=0:00:01.58    \nframe=   21 fps=9.7 q=41.0 size=       0KiB time=00:00:00.17 bitrate=  22.0kbits/s speed=0.0809x elapsed=0:00:02.16    \nframe=   25 fps=9.2 q=41.0 size=       0KiB time=00:00:00.20 bitrate=  18.5kbits/s speed=0.0763x elapsed=0:00:02.73    \nframe=   30 fps=9.1 q=42.0 size=       0KiB time=00:00:00.25 bitrate=  15.4kbits/s speed=0.0756x elapsed=0:00:03.30    \nframe=   34 fps=8.7 q=41.0 size=       0KiB time=00:00:00.28 bitrate=  13.6kbits/s speed=0.0726x elapsed=0:00:03.90    \nframe=   38 fps=8.5 q=42.0 size=       0KiB time=00:00:00.31 bitrate=  12.2kbits/s speed=0.0711x elapsed=0:00:04.45    \nframe=   43 fps=8.6 q=42.0 size=       0KiB time=00:00:00.35 bitrate=  10.7kbits/s speed=0.0718x elapsed=0:00:04.99    \nframe=   46 fps=8.3 q=34.0 size=       0KiB time=00:00:00.38 bitrate=  10.0kbits/s speed=0.0694x elapsed=0:00:05.52    \nframe=   51 fps=8.4 q=42.0 size=       0KiB time=00:00:00.42 bitrate=   9.1kbits/s speed=0.0703x elapsed=0:00:06.04    \nframe=   54 fps=8.2 q=43.0 size=       0KiB time=00:00:00.45 bitrate=   8.6kbits/s speed=0.0681x elapsed=0:00:06.60    \nframe=   58 fps=8.1 q=42.0 size=       0KiB time=00:00:00.48 bitrate=   8.0kbits/s speed=0.0677x elapsed=0:00:07.14    \nframe=   62 fps=8.1 q=43.0 size=       0KiB time=00:00:00.50 bitrate=   7.6kbits/s speed=0.0664x elapsed=0:00:07.65    \nframe=   67 fps=8.2 q=33.0 size=       0KiB time=00:00:00.55 bitrate=   6.9kbits/s speed=0.068x elapsed=0:00:08.21    \nframe=   72 fps=8.2 q=43.0 size=       0KiB time=00:00:00.60 bitrate=   6.4kbits/s speed=0.0686x elapsed=0:00:08.74    \nframe=   76 fps=8.2 q=42.0 size=       0KiB time=00:00:00.63 bitrate=   6.1kbits/s speed=0.0681x elapsed=0:00:09.30    \nframe=   80 fps=8.1 q=42.0 size=       0KiB time=00:00:00.66 bitrate=   5.8kbits/s speed=0.0677x elapsed=0:00:09.85    \nframe=   83 fps=8.0 q=42.0 size=       0KiB time=00:00:00.69 bitrate=   5.6kbits/s speed=0.0664x elapsed=0:00:10.41    \nframe=   87 fps=7.9 q=43.0 size=       0KiB time=00:00:00.72 bitrate=   5.3kbits/s speed=0.0661x elapsed=0:00:10.96    \nframe=   91 fps=7.9 q=43.0 size=       0KiB time=00:00:00.75 bitrate=   5.1kbits/s speed=0.0658x elapsed=0:00:11.51    \nframe=   95 fps=7.9 q=31.0 size=       0KiB time=00:00:00.79 bitrate=   4.9kbits/s speed=0.0655x elapsed=0:00:12.07    \nframe=  100 fps=7.9 q=44.0 size=       0KiB time=00:00:00.83 bitrate=   4.6kbits/s speed=0.0661x elapsed=0:00:12.60    \nframe=  103 fps=7.8 q=45.0 size=       0KiB time=00:00:00.85 bitrate=   4.5kbits/s speed=0.0652x elapsed=0:00:13.16    \nframe=  108 fps=7.9 q=45.0 size=       0KiB time=00:00:00.90 bitrate=   4.3kbits/s speed=0.0657x elapsed=0:00:13.69    \nframe=  113 fps=7.9 q=45.0 size=       0KiB time=00:00:00.94 bitrate=   4.1kbits/s speed=0.0662x elapsed=0:00:14.23    \nframe=  117 fps=7.9 q=45.0 size=       0KiB time=00:00:00.97 bitrate=   3.9kbits/s speed=0.066x elapsed=0:00:14.77    \nframe=  122 fps=8.0 q=45.0 size=       0KiB time=00:00:01.01 bitrate=   3.8kbits/s speed=0.0664x elapsed=0:00:15.30    \nframe=  127 fps=8.0 q=45.0 size=       0KiB time=00:00:01.05 bitrate=   3.6kbits/s speed=0.0668x elapsed=0:00:15.83    \nframe=  131 fps=8.0 q=44.0 size=     256KiB time=00:00:01.09 bitrate=1921.1kbits/s speed=0.0667x elapsed=0:00:16.36    \nframe=  136 fps=8.1 q=32.0 size=     256KiB time=00:00:01.13 bitrate=1850.4kbits/s speed=0.0671x elapsed=0:00:16.87    \nframe=  142 fps=8.2 q=45.0 size=     256KiB time=00:00:01.17 bitrate=1784.8kbits/s speed=0.0675x elapsed=0:00:17.40    \nframe=  146 fps=8.1 q=45.0 size=     256KiB time=00:00:01.21 bitrate=1723.7kbits/s speed=0.0678x elapsed=0:00:17.95    \nframe=  150 fps=8.1 q=33.0 size=     256KiB time=00:00:01.25 bitrate=1677.7kbits/s speed=0.0676x elapsed=0:00:18.49    \nframe=  155 fps=8.1 q=45.0 size=     256KiB time=00:00:01.29 bitrate=1623.6kbits/s speed=0.0678x elapsed=0:00:19.04    \nframe=  158 fps=8.1 q=46.0 size=     256KiB time=00:00:01.31 bitrate=1592.8kbits/s speed=0.0673x elapsed=0:00:19.57    \nframe=  163 fps=8.1 q=46.0 size=     256KiB time=00:00:01.35 bitrate=1543.9kbits/s speed=0.0675x elapsed=0:00:20.11    \nframe=  167 fps=8.1 q=46.0 size=     256KiB time=00:00:01.39 bitrate=1506.9kbits/s speed=0.0674x elapsed=0:00:20.64    \nframe=  172 fps=8.1 q=45.0 size=     256KiB time=00:00:01.43 bitrate=1463.1kbits/s speed=0.0677x elapsed=0:00:21.16    \nframe=  178 fps=8.2 q=45.0 size=     256KiB time=00:00:01.48 bitrate=1413.8kbits/s speed=0.0684x elapsed=0:00:21.67    \nframe=  185 fps=8.3 q=45.0 size=     256KiB time=00:00:01.54 bitrate=1360.3kbits/s speed=0.0694x elapsed=0:00:22.20    \nframe=  190 fps=8.4 q=44.0 size=     256KiB time=00:00:01.58 bitrate=1324.5kbits/s speed=0.0696x elapsed=0:00:22.74    \nframe=  197 fps=8.5 q=45.0 size=     256KiB time=00:00:01.64 bitrate=1277.5kbits/s speed=0.0706x elapsed=0:00:23.26    \nframe=  203 fps=8.5 q=45.0 size=     256KiB time=00:00:01.69 bitrate=1239.7kbits/s speed=0.0711x elapsed=0:00:23.80    \nframe=  210 fps=8.6 q=45.0 size=     256KiB time=00:00:01.75 bitrate=1198.4kbits/s speed=0.0719x elapsed=0:00:24.32    \nframe=  215 fps=8.7 q=45.0 size=     256KiB time=00:00:01.79 bitrate=1170.5kbits/s speed=0.0721x elapsed=0:00:24.84    \nframe=  222 fps=8.7 q=46.0 size=     256KiB time=00:00:01.85 bitrate=1133.6kbits/s speed=0.0729x elapsed=0:00:25.37    \nframe=  228 fps=8.8 q=47.0 size=     256KiB time=00:00:01.90 bitrate=1103.8kbits/s speed=0.0733x elapsed=0:00:25.90    \nframe=  233 fps=8.8 q=47.0 size=     256KiB time=00:00:01.94 bitrate=1080.1kbits/s speed=0.0735x elapsed=0:00:26.43    \nframe=  239 fps=8.9 q=46.0 size=     256KiB time=00:00:01.99 bitrate=1053.0kbits/s speed=0.0739x elapsed=0:00:26.95    \nframe=  245 fps=8.9 q=48.0 size=     256KiB time=00:00:02.04 bitrate=1027.2kbits/s speed=0.0743x elapsed=0:00:27.47    \nframe=  251 fps=9.0 q=35.0 size=     256KiB time=00:00:02.09 bitrate=1002.6kbits/s speed=0.0746x elapsed=0:00:28.02    \nframe=  256 fps=9.0 q=48.0 size=     256KiB time=00:00:02.13 bitrate= 983.0kbits/s speed=0.0747x elapsed=0:00:28.55    \nframe=  263 fps=9.0 q=47.0 size=     768KiB time=00:00:02.19 bitrate=2870.6kbits/s speed=0.0753x elapsed=0:00:29.09    \nframe=  269 fps=9.1 q=47.0 size=     768KiB time=00:00:02.24 bitrate=2806.6kbits/s speed=0.0757x elapsed=0:00:29.61    \nframe=  275 fps=9.1 q=46.0 size=     768KiB time=00:00:02.29 bitrate=2745.4kbits/s speed=0.076x elapsed=0:00:30.13    \nframe=  281 fps=9.2 q=47.0 size=     768KiB time=00:00:02.34 bitrate=2686.7kbits/s speed=0.0764x elapsed=0:00:30.65    \nframe=  286 fps=9.2 q=49.0 size=     768KiB time=00:00:02.38 bitrate=2639.8kbits/s speed=0.0764x elapsed=0:00:31.18    \nframe=  292 fps=9.2 q=38.0 size=     768KiB time=00:00:02.42 bitrate=2594.4kbits/s speed=0.0765x elapsed=0:00:31.70    \nframe=  298 fps=9.2 q=55.0 size=     768KiB time=00:00:02.48 bitrate=2533.5kbits/s speed=0.077x elapsed=0:00:32.25    \nframe=  304 fps=9.3 q=56.0 size=     768KiB time=00:00:02.53 bitrate=2483.5kbits/s speed=0.0773x elapsed=0:00:32.78    \nframe=  310 fps=9.3 q=57.0 size=     768KiB time=00:00:02.58 bitrate=2435.4kbits/s speed=0.0776x elapsed=0:00:33.30    \nframe=  315 fps=9.3 q=57.0 size=     768KiB time=00:00:02.62 bitrate=2396.7kbits/s speed=0.0776x elapsed=0:00:33.81    \nframe=  320 fps=9.3 q=42.0 size=     768KiB time=00:00:02.66 bitrate=2359.3kbits/s speed=0.0777x elapsed=0:00:34.34    \nframe=  326 fps=9.3 q=55.0 size=     768KiB time=00:00:02.71 bitrate=2315.9kbits/s speed=0.0779x elapsed=0:00:34.86    \nframe=  332 fps=9.4 q=53.0 size=     768KiB time=00:00:02.76 bitrate=2274.0kbits/s speed=0.0782x elapsed=0:00:35.39    \nframe=  338 fps=9.4 q=50.0 size=     768KiB time=00:00:02.81 bitrate=2233.7kbits/s speed=0.0784x elapsed=0:00:35.90    \nframe=  344 fps=9.4 q=52.0 size=     768KiB time=00:00:02.86 bitrate=2194.7kbits/s speed=0.0787x elapsed=0:00:36.43    \nframe=  351 fps=9.5 q=53.0 size=     768KiB time=00:00:02.92 bitrate=2150.9kbits/s speed=0.0791x elapsed=0:00:36.96    \nframe=  357 fps=9.5 q=50.0 size=     768KiB time=00:00:02.97 bitrate=2114.8kbits/s speed=0.0793x elapsed=0:00:37.49    \nframe=  365 fps=9.6 q=47.0 size=     768KiB time=00:00:03.04 bitrate=2068.4kbits/s speed=0.08x elapsed=0:00:38.01    \nframe=  370 fps=9.6 q=46.0 size=     768KiB time=00:00:03.08 bitrate=2040.5kbits/s speed=0.08x elapsed=0:00:38.54    \nframe=  378 fps=9.7 q=48.0 size=     768KiB time=00:00:03.15 bitrate=1997.3kbits/s speed=0.0807x elapsed=0:00:39.04    \nframe=  384 fps=9.7 q=49.0 size=     768KiB time=00:00:03.20 bitrate=1966.1kbits/s speed=0.0809x elapsed=0:00:39.57    \nframe=  392 fps=9.8 q=43.0 size=    1280KiB time=00:00:03.26 bitrate=3209.9kbits/s speed=0.0814x elapsed=0:00:40.10    \nframe=  399 fps=9.8 q=43.0 size=    1280KiB time=00:00:03.32 bitrate=3153.6kbits/s speed=0.0818x elapsed=0:00:40.64    \nframe=  407 fps=9.9 q=45.0 size=    1280KiB time=00:00:03.39 bitrate=3091.6kbits/s speed=0.0824x elapsed=0:00:41.17    \nframe=  414 fps=9.9 q=43.0 size=    1280KiB time=00:00:03.45 bitrate=3039.4kbits/s speed=0.0828x elapsed=0:00:41.68    \nframe=  422 fps= 10 q=41.0 size=    1280KiB time=00:00:03.51 bitrate=2981.7kbits/s speed=0.0833x elapsed=0:00:42.22    \nframe=  429 fps= 10 q=41.0 size=    1280KiB time=00:00:03.57 bitrate=2933.1kbits/s speed=0.0836x elapsed=0:00:42.74    \nframe=  436 fps= 10 q=37.0 size=    1280KiB time=00:00:03.63 bitrate=2886.0kbits/s speed=0.084x elapsed=0:00:43.25    \nframe=  443 fps= 10 q=39.0 size=    1280KiB time=00:00:03.69 bitrate=2840.4kbits/s speed=0.0843x elapsed=0:00:43.77    \nframe=  449 fps= 10 q=40.0 size=    1280KiB time=00:00:03.74 bitrate=2802.4kbits/s speed=0.0845x elapsed=0:00:44.28    \nframe=  456 fps= 10 q=40.0 size=    1280KiB time=00:00:03.80 bitrate=2759.4kbits/s speed=0.0848x elapsed=0:00:44.80    \nframe=  459 fps= 10 q=39.0 size=    1280KiB time=00:00:03.82 bitrate=2741.4kbits/s speed=0.0843x elapsed=0:00:45.37    \nframe=  465 fps= 10 q=43.0 size=    1280KiB time=00:00:03.87 bitrate=2706.0kbits/s speed=0.0844x elapsed=0:00:45.93    \nframe=  472 fps= 10 q=41.0 size=    1280KiB time=00:00:03.93 bitrate=2665.9kbits/s speed=0.0847x elapsed=0:00:46.46    \nframe=  475 fps= 10 q=17.0 size=    1280KiB time=00:00:03.95 bitrate=2649.0kbits/s speed=0.0842x elapsed=0:00:47.00    \nframe=  482 fps= 10 q=38.0 size=    1280KiB time=00:00:04.01 bitrate=2610.6kbits/s speed=0.0845x elapsed=0:00:47.54    \nframe=  489 fps= 10 q=39.0 size=    1280KiB time=00:00:04.06 bitrate=2578.5kbits/s speed=0.0846x elapsed=0:00:48.06    \nframe=  493 fps= 10 q=36.0 size=    1280KiB time=00:00:04.10 bitrate=2552.3kbits/s speed=0.0845x elapsed=0:00:48.62    \nframe=  498 fps= 10 q=38.0 size=    1280KiB time=00:00:04.15 bitrate=2526.7kbits/s speed=0.0844x elapsed=0:00:49.15    \nframe=  502 fps= 10 q=39.0 size=    1280KiB time=00:00:04.18 bitrate=2506.6kbits/s speed=0.0842x elapsed=0:00:49.69    \nframe=  507 fps= 10 q=40.0 size=    1280KiB time=00:00:04.22 bitrate=2481.8kbits/s speed=0.0841x elapsed=0:00:50.22    \nframe=  512 fps= 10 q=40.0 size=    1280KiB time=00:00:04.26 bitrate=2457.6kbits/s speed=0.084x elapsed=0:00:50.77    \nframe=  517 fps= 10 q=39.0 size=    1792KiB time=00:00:04.30 bitrate=3407.4kbits/s speed=0.0839x elapsed=0:00:51.34    \nframe=  524 fps= 10 q=38.0 size=    1792KiB time=00:00:04.36 bitrate=3361.8kbits/s speed=0.0842x elapsed=0:00:51.88    \nframe=  528 fps= 10 q=23.0 size=    1792KiB time=00:00:04.40 bitrate=3336.4kbits/s speed=0.0839x elapsed=0:00:52.42    \nframe=  534 fps= 10 q=37.0 size=    1792KiB time=00:00:04.45 bitrate=3298.9kbits/s speed=0.084x elapsed=0:00:52.96    \nframe=  540 fps= 10 q=38.0 size=    1792KiB time=00:00:04.50 bitrate=3262.2kbits/s speed=0.0841x elapsed=0:00:53.48    \nframe=  544 fps= 10 q=38.0 size=    1792KiB time=00:00:04.52 bitrate=3244.2kbits/s speed=0.0837x elapsed=0:00:54.04    \nframe=  549 fps= 10 q=38.0 size=    1792KiB time=00:00:04.57 bitrate=3208.8kbits/s speed=0.0838x elapsed=0:00:54.60    \nframe=  554 fps= 10 q=40.0 size=    1792KiB time=00:00:04.61 bitrate=3179.8kbits/s speed=0.0837x elapsed=0:00:55.14    \nframe=  558 fps= 10 q=30.0 size=    1792KiB time=00:00:04.65 bitrate=3157.0kbits/s speed=0.0835x elapsed=0:00:55.70    \nframe=  564 fps= 10 q=42.0 size=    1792KiB time=00:00:04.70 bitrate=3123.4kbits/s speed=0.0836x elapsed=0:00:56.25    \nframe=  568 fps= 10 q=40.0 size=    1792KiB time=00:00:04.73 bitrate=3101.4kbits/s speed=0.0833x elapsed=0:00:56.80    \nframe=  574 fps= 10 q=40.0 size=    1792KiB time=00:00:04.78 bitrate=3069.0kbits/s speed=0.0834x elapsed=0:00:57.37    \nframe=  576 fps= 10 q=41.0 size=    1792KiB time=00:00:04.80 bitrate=3058.3kbits/s speed=0.0829x elapsed=0:00:57.87    \nframe=  576 fps=9.9 q=41.0 size=    1792KiB time=00:00:04.80 bitrate=3058.3kbits/s speed=0.0821x elapsed=0:00:58.44    \nframe=  576 fps=9.8 q=41.0 size=    1792KiB time=00:00:04.80 bitrate=3058.3kbits/s speed=0.0814x elapsed=0:00:58.95    \nframe=  576 fps=9.7 q=41.0 size=    1792KiB time=00:00:04.80 bitrate=3058.3kbits/s speed=0.0807x elapsed=0:00:59.49    \nframe=  576 fps=9.6 q=41.0 size=    1792KiB time=00:00:04.80 bitrate=3058.3kbits/s speed=0.08x elapsed=0:01:00.00    \n[out#0/webm @ 000002683fd69b80] video:2411KiB audio:0KiB subtitle:0KiB other streams:0KiB global headers:0KiB muxing overhead: 0.196648%\nframe=  600 fps= 10 q=45.0 Lsize=    2415KiB time=00:00:05.00 bitrate=3957.2kbits/s speed=0.083x elapsed=0:01:00.22    \n",
  "seconds": 60.367501735687256,
  "probe_out": {}
}